<?xml version="1.0" encoding="utf-8"?>
<!-- Generator: Adobe Illustrator 24.0.1, SVG Export Plug-In . SVG Version: 6.00 Build 0)  -->
<svg version="1.1" xmlns="http://www.w3.org/2000/svg" xmlns:xlink="http://www.w3.org/1999/xlink" x="0px" y="0px"
	 viewBox="0 0 80 80" enable-background="new 0 0 80 80" xml:space="preserve">
<g id="Layer_19">
</g>
<g id="Layer_1">
</g>
<g id="Layer_2">
</g>
<g id="Layer_3">
</g>
<g id="Layer_4">
</g>
<g id="Layer_5">
	<rect y="0" fill="none" width="80" height="80"/>
	<g id="Ebene_2_2_">
		<g>
			<path fill="#FFFFFF" d="M6.1997,28.852c-1.3165,1.1849-2.0187,2.8964-2.0187,4.7395v0.2633
				c0.0439,1.1849,0.395,2.3259,1.0093,3.3791l0.1317,0.2194l-0.1755,0.2194c-0.1755,0.2633-1.141,1.5798-1.3165,3.423
				c-0.0439,0.4388-0.0439,0.8777-0.0439,1.2288c0,1.7115,0.4388,2.2381,0.6144,2.4575c0.395,0.4827,3.0719,2.8964,6.4071,3.1597
				c2.1942,0.1755,4.0374-0.3072,5.5294-1.3604l0.3072-0.2194l0.2194,0.3072c0.6144,0.8777,1.9309,1.3604,3.8179,1.3604
				c1.2288,0,2.1942-0.1755,2.8964-0.5266l0.1755-0.0878l0.1755,0.0878c0.9655,0.4827,2.1942,0.5705,3.0719,0.5705
				c1.141,0,2.0626-0.1755,2.7647-0.5705l0.1755-0.1317l0.1755,0.0878c0.9655,0.4827,2.282,0.5705,2.9403,0.5705
				c0.746,0,2.7647,0,3.7302-1.1849l0.2194-0.3072l0.3072,0.2194c1.3165,0.9655,3.0719,1.4921,5.1784,1.4921
				s4.1251-0.7021,5.6172-1.9748l0.3511-0.3072l0.2194,0.4388c0.2194,0.395,0.5705,0.7021,1.0532,0.8777
				c1.3604,0.5266,3.5107,0.8777,5.4855,0.8777c0.4827,0,0.9655-0.0439,1.4482-0.0878l0.6144-0.0878l-0.1755,0.5705
				c-0.3511,1.0971,0,2.6331,0.8338,3.9057c0.3072,0.4827,2.0187,2.8964,3.8618,2.5014c3.3791-0.6583,6.6704-4.6956,6.846-4.8712
				c4.3007-5.3539,8.0747-12.5509,8.4697-13.3408l0,0c0-0.0439,0.0439-0.1317,0.0878-0.1755
				c0.6583-1.3165,1.0093-2.0626,1.0093-2.6769v-0.0439c-0.0439-0.746-0.7022-1.9748-4.6956-1.9748
				c-0.9216,0-3.1158,0-3.8618,1.4482l0,0l0,0l-0.4388,0.6583l-0.2633-0.6583c-0.4388-1.0971-1.7115-1.5798-3.8179-1.5798l0,0l0,0
				c0,0-0.0878,0-0.1317,0h-0.0439c-1.7554,0.0439-2.8964,0.395-3.4669,1.0971l-0.2194,0.2633l-0.3072-0.1755
				c-0.9655-0.6144-2.1503-0.9216-3.423-0.9216h-0.7021v-0.395c0-0.9216,0-1.5798,0-1.6676c0-0.3072-0.0439-0.7899-0.3072-1.2726
				c-0.5705-0.9655-1.7993-1.4482-3.8618-1.4043h-0.2194c0,0,0,0,0-0.0439c-1.9309,0-3.0719,0.4827-3.6424,1.4043
				c-0.2633,0.4388-0.3072,1.141-0.3072,1.4482l0,0v0.0439v3.028l-0.5705-0.3511c-1.2726-0.7899-2.8525-1.1849-4.6956-1.1849
				c-2.4136,0-4.6079,0.8777-6.1877,2.5014l-0.3511,0.3511l-0.2633-0.395c-0.9216-1.4921-2.5014-2.3259-4.4323-2.3259
				c-0.9216,0-1.887,0.2633-2.6769,0.746l-0.2194,0.1317l-0.1755-0.1317c-0.8777-0.5266-1.8431-0.7899-2.9403-0.7899
				c-0.8777,0-1.7554,0.2194-2.5892,0.7021l-0.2194,0.1317l-0.2194-0.1755c-0.7899-0.7021-1.4482-0.9655-1.7554-1.0532
				c-0.7899-0.2194-1.2288-0.0439-1.4043,0.0439l-0.5266,0.2194l-0.0439-0.5705c0-0.3072-0.0878-0.746-0.395-1.2288l-0.0439-0.0439
				c-0.1317-0.2194-0.2633-0.395-0.395-0.5266c-0.0878-0.0439-0.2194-0.1755-0.4388-0.3511
				c-1.6676-1.0093-3.2913-1.5798-5.31-1.7993C10.0177,26.7894,7.7795,27.4038,6.1997,28.852z"/>
			<path d="M77.1607,33.8109l-0.3511-0.3511c-0.4827-0.4827-1.5798-0.746-3.3352-0.746c-1.2726,0-2.6331,0.1317-3.1597,1.0971
				c0,0.0439-0.0878,0.1317-0.1317,0.2633c-0.2633,0.4388-0.7899,1.4482-1.7554,3.2474c0-1.6237-0.0439-3.4669-0.3511-3.8618
				c-0.6144-0.7899-2.4575-0.8338-2.8525-0.8338c-2.8086-0.0439-3.1597,0.8338-3.2913,1.0971
				c-0.0878,0.1755-0.1317,0.2633-0.0878,1.4482c-0.9216-1.4921-2.4136-2.3259-4.3007-2.3259c-0.5705,0-1.141,0.0878-1.6237,0.2194
				c0-0.0439,0-0.0878,0-0.1317c0-0.0878,0.0878-1.9748,0.0439-2.9841c0-0.2633-0.0439-0.5705-0.2194-0.8338
				c-0.1317-0.2633-0.6144-1.0093-3.1158-1.0093c-2.1942,0-3.2474,0.4388-3.3352,1.4921c0,0.1755,0,0.2194,0,0.3072
				c0,0.0439,0,0.0439,0,0.0878c0,0,0,2.5453,0,5.4855c-1.141-2.0187-3.2474-3.0719-6.1877-3.0719
				c-3.0719,0-5.5733,1.536-6.846,3.9496c-0.3511-2.4575-1.9748-3.8618-4.4323-3.8618c-1.1849,0-2.1503,0.4827-2.8964,1.0971
				c-0.8338-0.746-1.887-1.141-3.1158-1.141c-1.1849,0-2.1942,0.4388-2.9403,1.0532c-0.5705-0.6583-1.4921-1.2726-2.8086-1.4921
				l-0.1755-0.0439L19.76,32.0117c-0.1755,0.0439-0.8338,0.1317-1.5798,0.7899c0.1755-1.5359-0.1755-2.282-0.2194-2.6331
				l-0.1755-0.4388l-0.3072-0.1755c-1.6237-1.0093-3.1597-1.4482-4.9589-1.6237c-2.282-0.2633-4.2129,0.2633-5.5733,1.4921
				c-1.1849,1.0532-1.8431,2.6331-1.8431,4.3884c0,1.4921,0.5705,2.6769,1.4043,3.6863l-0.5705,0.7021
				c-0.0878,0.1317-1.0093,1.3165-1.141,3.028c-0.0878,0.7021-0.1755,2.4575,0.3511,3.0719
				c0.3072,0.395,2.7647,2.5892,5.7927,2.8086c2.8964,0.2194,4.6517-0.7899,5.6172-1.7993c0.3511-0.395,0.6583-0.746,0.9216-1.2288
				c0,0.6144,0,0.9216,0,0.9216v0.2633c0,0.2633,0,0.395,0.0439,0.5705c0.3511,1.141,2.1942,1.3165,3.2474,1.3165
				c1.9748,0,2.7208-0.4827,3.028-0.8338c0.6583,0.746,2.3259,0.8777,3.2474,0.8777c0.8338,0,2.3259-0.1317,2.9841-0.8338
				c0.7021,0.746,2.3698,0.7899,3.0719,0.7899c1.887,0,2.8964-0.395,3.2474-1.2288c0.0878-0.2194,0.0878-0.4388,0.0878-0.5705
				v-0.9655c1.141,1.9309,3.2036,2.9403,6.1438,2.9403c3.028,0,5.4855-1.4921,6.7582-3.8618c0,0.7899,0,1.2726,0,1.2726
				c0,0.4827-0.0439,1.3604,0.7899,1.7115c1.2726,0.4827,3.3352,0.8338,5.1784,0.8338c3.3791,0,5.5733-1.6237,6.7143-3.8618
				c0,0.5266,0,1.0093,0,1.3604c0,0.1755-0.0439,0.4827-0.1317,0.7022c-0.6144,1.6237-2.3698,2.2381-2.9841,2.4575
				c-0.2633,0.0878-0.5705,0.2194-0.7899,0.5705c-0.395,0.6583-0.3072,2.1503,0.5705,3.4669
				c0.5705,0.8338,1.887,2.3698,2.9841,2.1503c2.1942-0.4388,4.7395-2.6769,6.3193-4.6517
				c4.4323-5.4417,8.8646-14.043,9.1279-14.7451l0.0439-0.1755v-0.1755C77.1607,34.3814,77.1607,33.8987,77.1607,33.8109
				 M55.789,41.0957v-1.2726c0-0.9216,0.3072-1.4043,0.6144-1.4043c0.0439,0,0.0439,0,0.0439,0
				c0.0439,0.0878,0.1317,0.3511,0.1317,1.0532C56.5789,40.8763,56.1401,41.0518,55.789,41.0957z"/>
			<path d="M55.789,41.0957v-1.2726c0-0.9216,0.3072-1.4043,0.6144-1.4043c0.0439,0,0.0439,0,0.0439,0
				c0.0439,0.0878,0.1317,0.3511,0.1317,1.0532C56.5789,40.8763,56.1401,41.0518,55.789,41.0957z"/>
			<path fill="none" stroke="#000000" stroke-width="0.1375" d="M55.7451,41.0518v-1.2288c0-0.8338,0.3511-1.3604,0.6583-1.3604
				h0.0439c0.0439,0.0878,0.1317,0.3511,0.1317,1.0093C56.5789,40.7885,56.0962,41.0518,55.7451,41.0518z"/>
			<path fill="#FFED00" stroke="#FFED00" stroke-width="0.2751" d="M11.027,45.9669c-2.5892-0.1317-4.7834-2.1503-5.0467-2.4575
				c-0.0439-0.0878-0.2194-0.8338-0.0878-2.1942c0.1317-1.4043,0.9216-2.4136,0.9216-2.4136
				c1.4921,1.1849,5.1784,3.3352,5.705,2.6331c1.4043-1.7554-6.3193-3.1158-6.3193-7.7236c0-3.028,2.282-5.2222,6.1438-4.7834
				c1.6676,0.1755,3.028,0.5705,4.5201,1.4921c0,0,0.3511,0.9216,0.1755,2.3259c-0.1317,1.0093-0.5266,1.8431-0.6144,1.7993
				c-0.1317-0.0439-0.395-0.3072-1.4482-0.8338c-1.2726-0.6144-3.0719-1.3165-3.423-0.6144
				c-0.7022,1.3604,5.0467,2.3698,5.5733,6.4071C17.6096,42.7195,15.8104,46.2302,11.027,45.9669z"/>
			<path fill="#0095DB" stroke="#0095DB" stroke-width="0.2751" d="M43.1064,33.5915c-3.7302,0-6.5827,2.5453-6.5827,6.6704
				c0,4.3446,2.3698,5.9683,6.0122,5.9683s6.5827-2.5892,6.5827-6.5827C49.1186,35.7857,47.0999,33.5915,43.1064,33.5915
				 M42.7993,42.4561c-1.141,0-1.5798-0.746-1.5798-2.5892c0-1.6676,0.8338-2.3698,1.6676-2.3698
				c1.1849,0,1.5798,0.7899,1.5798,2.4575C44.4669,41.4907,43.8964,42.4561,42.7993,42.4561z"/>
			<path fill="#FFED00" stroke="#FFED00" stroke-width="0.2751" d="M57.7199,39.5159c0,2.1064-0.9655,2.7647-2.1065,2.7647
				c-0.4827,0-0.746-0.0439-0.9655-0.0878V39.867c0-1.7115,0.8338-2.5453,1.7554-2.5453
				C57.2811,37.3217,57.7199,37.8922,57.7199,39.5159 M61.7573,39.3404c0-3.2036-1.4043-5.3539-4.2129-5.3539
				c-1.4043,0-2.4136,0.5266-2.8964,1.3165h-0.0439c0.0878-0.6144,0.1755-1.6237,0.1755-2.3698c0,0,0.0878-1.9309,0.0439-2.8964
				c0-0.1755,0-0.2633-0.0439-0.3511c-0.1317-0.2194-0.9216-0.4388-2.1503-0.4388c-1.3165,0-2.1503,0.2194-2.1942,0.395
				c0,0.2194,0,0.2194,0,0.3511v14.789c0,0-0.0439,0.5705,0.0439,0.5705c1.0971,0.395,2.9841,0.746,4.7395,0.746
				C59.5631,46.1424,61.7573,42.9828,61.7573,39.3404z"/>
			<path fill="#E3000B" stroke="#E3000B" stroke-width="0.2751" d="M67.0673,48.7316c-1.5359,1.8431-3.8179,3.8618-5.6611,4.2129
				c-0.1317,0.0439-1.0532-0.4827-1.8431-1.6676c-0.746-1.141-0.6583-2.1503-0.5705-2.2381
				c0.0439-0.0878,2.9403-0.7021,3.8618-3.2474c0.1755-0.4388,0.2194-1.0093,0.2194-1.0093c0-2.5892-0.1317-10.5761-0.0878-10.7078
				c0.0439-0.1317,0.746-0.4388,2.2381-0.4388c1.0532,0,1.8431,0.2633,1.9309,0.395c0.0878,0.0878,0.1317,4.0374,0.0878,5.3539
				c-0.0878,2.0187-0.1755,2.9403-0.2194,2.9403l0,0c3.1158-5.9244,4.2568-7.9431,4.3445-8.1186
				c0.0878-0.1755,0.4827-0.4827,2.1503-0.4827c1.4043,0,2.5453,0.2194,2.5453,0.4827
				C75.7564,34.9958,71.4118,43.4655,67.0673,48.7316z"/>
			<path fill="#E3000B" stroke="#E3000B" stroke-width="0.2751" d="M17.8291,34.7325c-0.5705,0.7021-0.746,1.1849-0.7022,1.2726
				s0.9216,0.8338,1.3165,2.6331c0.2633,1.141,0.2194,2.282,0.2194,2.282v4.0374c0,0.3072,0,0.4827,0,0.4827
				c0.0878,0.2194,0.7021,0.5266,1.9748,0.5266c1.2726,0,2.0626-0.2633,2.1503-0.5266c0-0.0439,0-0.1317,0-0.1317v-5.31
				c0-1.9748,0.6583-2.6331,1.1849-2.6331c0.395,0,0.5266,0.395,0.5266,1.0971v6.7582c0,0.0878,0,0.2633,0,0.2633
				c0.1755,0.2194,1.0971,0.4827,2.4136,0.4827s1.9748-0.2633,2.1503-0.4827v-0.2633v-5.2222c0-1.8431,0.6144-2.6331,1.0532-2.6331
				c0.4388,0,0.5705,0.395,0.5705,1.0971v6.8898c0,0.0878,0,0.1755,0,0.1755c0.1317,0.1755,0.8777,0.4827,2.282,0.4827
				s2.0626-0.2633,2.1503-0.4827c0-0.0439,0-0.0439,0-0.1317V37.585c0-2.5892-1.2726-3.9057-3.3352-3.9057
				c-1.4921,0-2.5453,1.0971-2.8964,1.7993c-0.6144-1.0532-1.6237-1.8431-3.1597-1.8431s-2.7208,1.0093-3.1158,1.7993
				c0,0-0.7899-1.7993-2.8525-2.1503C19.8477,33.2843,18.8384,33.5037,17.8291,34.7325z"/>
			<path fill="#FFFFFF" stroke="#FFFFFF" stroke-width="0.7682" d="M42.7554,41.2713c-0.0878,0-0.1755,0-0.1755,0
				c-0.0439-0.0439-0.1755-0.3511-0.1755-1.3165c0-0.6583,0.1755-1.141,0.4827-1.141c0.1317,0,0.1755,0,0.1755,0
				c0.0439,0.0439,0.1755,0.3072,0.1755,1.2288C43.2381,40.1742,43.1942,41.2713,42.7554,41.2713z"/>
			<path fill="#FFFFFF" stroke="#FFFFFF" stroke-width="0.7682" d="M55.789,41.008v-1.141c0-0.9216,0.3072-1.3165,0.5266-1.3165
				c0,0,0,0,0.0439,0c0.0439,0.0878,0.1317,0.3511,0.1317,0.9655C56.4912,40.7447,56.1401,40.9641,55.789,41.008z"/>
		</g>
	</g>
</g>
<g id="Layer_6">
</g>
<g id="Layer_9">
</g>
<g id="Layer_10">
</g>
<g id="Layer_11">
</g>
<g id="Layer_12">
</g>
<g id="Layer_13">
</g>
<g id="Layer_14">
</g>
<g id="Layer_15">
</g>
<g id="Layer_17">
</g>
<g id="Layer_7">
</g>
<g id="Layer_8">
</g>
<g id="Layer_18">
</g>
</svg>
